<svg width="22" height="22" viewBox="0 0 22 22" fill="none" xmlns="http://www.w3.org/2000/svg">
  <g clip-path="url(#clip0_4188_5413)">
    <path d="M6.98438 6.19922L13.8904 15.8259H15.0153L8.13539 6.19922H6.98438Z" fill="white"/>
    <path d="M11.0131 0C4.94411 0 0 4.91795 0 10.9869C0 17.0559 4.94411 21.9738 11.0131 21.9738C17.082 21.9738 22 17.0559 22 10.9869C22 4.91795 17.1082 0 11.0131 0ZM13.2366 16.8466L10.2021 12.5042L6.38288 16.8466H4.97027L9.57432 11.6147L4.99643 5.12723H8.78954L11.6671 9.23425L15.2771 5.12723H16.7158L12.321 10.1237L17.0297 16.8466H13.2366Z" fill="white"/>
  </g>
  <defs>
    <clipPath id="clip0_4188_5413">
      <rect width="22" height="22" fill="white"/>
    </clipPath>
  </defs>
</svg>