<svg width="61" height="51" viewBox="0 0 61 51" fill="none" xmlns="http://www.w3.org/2000/svg">
<g clip-path="url(#clip0_810_2973)">
<path d="M58.9667 0H2.03333C1.49382 0 0.977084 0.210667 0.59536 0.5856C0.214178 0.961067 0 1.46933 0 2V49C0 49.5307 0.214178 50.0389 0.59536 50.4144C0.976542 50.7899 1.49382 51 2.03333 51H58.9667C59.5062 51 60.0229 50.7893 60.4046 50.4144C60.7864 50.0395 61 49.5307 61 49V2C61 1.46933 60.7858 0.961067 60.4046 0.5856C60.0235 0.210133 59.5062 0 58.9667 0ZM56.9333 47H4.06667V15.0501H56.9333V47ZM56.9333 11.0501H4.06667V4.05013H56.9333V11.0501Z" fill="#4E3797"/>
<path d="M10.1363 7.46997C10.1363 8.5745 9.22592 9.46997 8.10297 9.46997C6.98003 9.46997 6.06964 8.5745 6.06964 7.46997C6.06964 6.36544 6.98003 5.46997 8.10297 5.46997C9.22592 5.46997 10.1363 6.36544 10.1363 7.46997Z" fill="#4E3797"/>
<path d="M16.2363 7.46997C16.2363 8.5745 15.3259 9.46997 14.203 9.46997C13.08 9.46997 12.1696 8.5745 12.1696 7.46997C12.1696 6.36544 13.08 5.46997 14.203 5.46997C15.3259 5.46997 16.2363 6.36544 16.2363 7.46997Z" fill="#4E3797"/>
<path d="M22.3363 7.46997C22.3363 8.5745 21.4259 9.46997 20.303 9.46997C19.18 9.46997 18.2697 8.5745 18.2697 7.46997C18.2697 6.36544 19.18 5.46997 20.303 5.46997C21.4259 5.46997 22.3363 6.36544 22.3363 7.46997Z" fill="#4E3797"/>
<path d="M20.6077 37.6698C20.9764 38.0932 21.5073 38.346 22.0739 38.3674C22.64 38.3892 23.1898 38.177 23.5899 37.7834C23.9901 37.3898 24.2059 36.849 24.1837 36.2916C24.162 35.7348 23.905 35.2122 23.4744 34.85L19.0618 30.5002L23.4744 26.1503C23.9229 25.6356 24.0752 24.9322 23.88 24.282C23.6848 23.6319 23.1676 23.1236 22.5071 22.9316C21.8462 22.7391 21.131 22.8895 20.6077 23.3306L14.7517 29.0906C14.3732 29.4655 14.1602 29.9722 14.1602 30.5007C14.1602 31.0292 14.3727 31.5359 14.7517 31.9108L20.6077 37.6708V37.6698Z" fill="#4E3797"/>
<path d="M37.525 37.6698C37.9062 38.042 38.4213 38.2516 38.9586 38.2516C39.496 38.2516 40.0111 38.0426 40.3923 37.6698L46.2483 31.9098C46.6268 31.5348 46.8398 31.0282 46.8398 30.4996C46.8398 29.9711 46.6273 29.4644 46.2483 29.0895L40.3923 23.3295C40.0236 22.906 39.4927 22.6532 38.9267 22.6319C38.3606 22.61 37.8108 22.8223 37.4101 23.2159C37.0094 23.6095 36.7941 24.1503 36.8163 24.7076C36.838 25.2644 37.095 25.7871 37.5256 26.1492L41.9382 30.4991L37.5256 34.849C37.1471 35.2239 36.934 35.7306 36.934 36.2591C36.934 36.7876 37.1465 37.2943 37.5256 37.6692L37.525 37.6698Z" fill="#4E3797"/>
<path d="M26.8806 40.3797C27.1024 40.4575 27.3366 40.4975 27.572 40.4997C27.99 40.4997 28.3978 40.3727 28.7394 40.1365C29.0815 39.9002 29.3412 39.5658 29.4833 39.1797L35.3393 23.1797C35.5627 22.5141 35.4152 21.7818 34.9511 21.2501C34.4864 20.7183 33.7728 20.4645 33.0701 20.5807C32.3674 20.6975 31.778 21.1674 31.5166 21.8197L25.6606 37.8197C25.4774 38.3183 25.5029 38.8682 25.7322 39.3482C25.961 39.8282 26.3742 40.1994 26.8806 40.3797Z" fill="#4E3797"/>
</g>
<defs>
<clipPath id="clip0_810_2973">
<rect width="61" height="51" fill="white"/>
</clipPath>
</defs>
</svg>
