<svg width="364" height="82" viewBox="0 0 364 82" fill="none" xmlns="http://www.w3.org/2000/svg">
    <path d="M0.338379 54.853V57.4225H7.15309V74.962H9.83429V57.4225H16.649V54.853H0.338379Z" fill="white"/>
    <path d="M35.4174 54.853V66.3598C35.4174 72.1691 32.2893 75.2972 27.1503 75.2972C22.0114 75.2972 18.8833 72.1691 18.8833 66.3598V55.7468L21.6762 54.9647V66.3598C21.6762 70.8285 23.6871 72.8394 27.1503 72.8394C30.6135 72.8394 32.7362 70.7168 32.7362 66.3598V55.7468L35.4174 54.853Z" fill="white"/>
    <path d="M68.7088 54.853L62.2292 74.962H59.2129L54.4091 60.5506L53.8505 58.8748L53.4036 60.5506L48.4881 74.962H45.5835L38.9922 54.853H41.8968L47.1475 71.1637L52.5099 54.853H55.3028L60.6652 71.2754L66.0276 54.853H68.7088Z" fill="white"/>
    <path d="M79.9926 54.853L76.8645 55.7468L68.374 74.962H71.2787L73.4013 69.9348H83.7909L85.9135 74.962H88.8182L80.1043 54.853H79.9926ZM74.295 67.5887L77.0879 61.1092L78.5402 57.6459L79.9926 60.9974L82.7855 67.5887H74.295Z" fill="white"/>
    <path d="M94.4038 54.853V74.962H91.6108V55.635L94.4038 54.853Z" fill="white"/>
    <path d="M118.981 75.1855C117.976 76.3027 116.747 76.8613 115.406 76.8613C114.066 76.8613 112.949 76.3027 111.608 74.7387C116.188 73.7332 119.316 69.8231 119.316 64.7959C119.316 59.7686 114.848 54.4062 108.927 54.4062C103.006 54.4062 98.5371 58.7632 98.5371 64.7959C98.5371 70.8286 102.671 74.7387 108.256 75.0738C111.049 77.9785 112.949 79.0956 115.406 79.0956C117.864 79.0956 119.093 78.3136 120.322 76.6379L118.981 75.1855ZM101.33 64.9076C101.33 60.4389 104.57 57.1992 108.927 57.1992C113.284 57.1992 116.523 60.5507 116.523 64.9076C116.523 69.2646 113.284 72.6161 108.927 72.6161C104.57 72.6161 101.33 69.2646 101.33 64.9076Z" fill="white"/>
    <path d="M159.758 57.199C161.881 57.199 163.78 57.981 165.232 59.6567L167.02 57.8693C165.232 55.7467 162.551 54.7412 159.535 54.7412C153.614 54.7412 149.145 59.0982 149.145 65.1309C149.145 71.1636 153.614 75.5205 159.535 75.5205C165.456 75.5205 165.232 74.4033 167.02 72.2807L165.232 70.4933C163.668 72.0573 161.881 72.951 159.758 72.951C155.289 72.951 152.05 69.5995 152.05 65.2426C152.05 60.8856 155.401 57.4224 159.758 57.4224V57.199Z" fill="white"/>
    <path d="M198.97 54.853H190.703V74.962H198.97C205.226 74.962 209.583 70.8285 209.583 64.7958C209.583 58.7631 205.338 54.853 198.97 54.853ZM198.97 72.3925H193.608V57.1991H198.858C203.662 57.1991 206.79 60.3271 206.79 64.7958C206.902 69.3762 203.774 72.3925 198.97 72.3925Z" fill="white"/>
    <path d="M216.51 66.0247H226.23V63.4552H216.51V57.4225H227.458V54.853H213.717V74.962H227.794V72.5043H216.51V66.0247Z" fill="white"/>
    <path d="M250.807 54.853L242.764 69.041L234.497 54.853H232.262V74.962H234.943V60.4389L241.982 72.616H243.322L250.36 60.3271V74.962H253.041V54.853H250.807Z" fill="white"/>
    <path d="M265.107 65.4661L258.739 54.853H255.834L263.543 68.0356V74.962H266.336V68.1473L274.044 54.853H271.363L265.107 65.4661Z" fill="white"/>
    <path d="M139.426 54.853L136.297 55.7468H136.186L127.695 74.962H130.6L132.723 69.9348H143.112L145.235 74.962H148.139L139.426 54.853ZM133.84 67.5887L136.633 61.1092L138.085 57.6459L139.537 60.9974L142.33 67.5887H133.84Z" fill="white"/>
    <path d="M179.085 54.853L175.957 55.7468H175.845L167.355 74.962H170.26L172.382 69.9348H182.772L184.894 74.962H187.799L179.085 54.853ZM173.499 67.5887L176.292 61.1092L177.745 57.6459L179.197 60.9974L181.99 67.5887H173.499Z" fill="white"/>
    <path d="M266 37.3136C266 37.4253 263.766 39.8831 263.766 39.8831H220.867V15.3055L223.771 14.5234V37.2019H262.649C262.649 36.9785 262.649 36.8668 262.425 36.6433C261.867 35.6379 261.196 34.5207 260.303 33.5153C258.739 31.9512 256.616 31.0575 254.382 31.0575H232.374L231.033 28.3763C231.033 28.2646 231.592 27.9294 231.703 27.8177C231.927 27.5943 232.15 27.4826 232.374 27.2591C232.82 26.924 233.267 26.5888 233.714 26.2537C234.608 25.5834 235.502 24.9131 236.395 24.1311C238.183 22.9022 240.082 21.785 242.205 21.003C242.428 20.8913 242.651 20.8913 242.763 20.7796C244.551 20.221 246.562 19.9976 248.349 20.5561C248.349 20.5561 248.796 20.6679 248.908 20.6679L247.344 23.2373C242.763 22.2319 234.72 28.1529 234.72 28.1529H255.052C256.728 28.1529 258.403 28.5997 259.856 29.4935C261.308 30.3872 262.872 31.6161 263.878 32.9567C263.952 33.0312 264.027 33.1056 264.101 33.1801C264.771 34.409 265.442 35.8613 266 37.2019V37.3136Z" fill="white"/>
    <path d="M47.2593 43.6813C46.8124 44.1282 46.7007 44.575 46.7007 45.1336C46.7007 45.6922 46.9241 46.1391 47.2593 46.5859C47.7061 46.9211 48.153 47.1445 48.7116 47.1445C49.2702 47.1445 49.717 46.9211 50.1639 46.5859C50.499 46.2508 50.7225 45.6922 50.7225 45.1336C50.7225 44.575 50.499 44.0164 50.1639 43.6813C49.8287 43.2344 49.2702 43.1227 48.7116 43.1227C48.0413 43.011 47.5944 43.2344 47.2593 43.6813Z" fill="white"/>
    <path d="M45.2484 45.2458C45.2484 44.6872 45.0249 44.1286 44.6898 43.7934C44.3546 43.3466 43.796 43.2349 43.2375 43.2349C42.6789 43.2349 42.232 43.4583 41.7851 43.7934C41.3383 44.2403 41.2266 44.6872 41.2266 45.2458C41.2266 45.8043 41.45 46.2512 41.7851 46.6981C42.232 47.0332 42.6789 47.2567 43.2375 47.2567C43.796 47.2567 44.2429 47.0332 44.6898 46.6981C45.0249 46.2512 45.2484 45.8043 45.2484 45.2458Z" fill="white"/>
    <path d="M47.8179 24.4657V37.0897H24.8043C24.8043 34.5202 24.8043 32.2859 24.4692 30.0515C24.2457 27.8172 24.0223 25.918 23.6872 24.0188C21.3411 24.354 19.4419 24.8008 17.7662 25.4711C16.2021 26.1414 14.8615 26.8117 13.7444 27.7055C12.7389 28.4875 11.9569 29.3812 11.51 30.4984C11.0632 31.3921 10.8397 32.3976 10.8397 33.5147C10.8397 35.7491 11.3983 37.3131 12.5155 38.3186C13.6327 39.324 15.3084 39.7709 17.5427 39.7709H21.788C21.788 41.1115 21.3411 42.3404 20.7825 43.1224C20.2239 43.9044 19.5536 44.463 18.7716 44.7981C17.9896 45.1333 17.3193 45.4684 16.5373 45.4684C15.867 45.5801 15.3084 45.5801 14.9733 45.5801H10.2812C8.60541 45.5801 7.26481 45.245 6.37108 44.6864C5.36563 44.1278 4.69533 43.3458 4.13674 42.3404C3.57816 41.4466 3.24301 40.5529 3.13129 39.4357C3.13129 38.4303 2.90786 37.5365 2.90786 36.6428C2.90786 35.4139 3.13129 33.9616 3.57816 32.7327C4.02503 31.3921 4.47189 30.1632 5.14219 29.0461H3.01958C2.68443 29.4929 2.46099 29.9398 2.12584 30.4984C1.7907 31.057 1.45555 31.6156 1.23211 32.3976C0.896962 33.0679 0.673529 33.9616 0.561812 34.9671C0.338379 36.1959 0.338379 37.4248 0.338379 38.6537C0.338379 39.8826 0.673529 41.7818 1.23211 42.8989C1.7907 44.1278 2.57271 45.1333 3.46644 45.9153C4.36018 46.6973 5.36563 47.2559 6.59451 47.7028C7.71168 48.0379 8.94056 48.2613 10.0577 48.2613H16.3139C18.1013 48.2613 19.5536 47.9262 20.6708 47.2559C21.788 46.5856 22.6817 45.8036 23.352 44.7981C24.0223 43.9044 24.4692 43.0107 24.6926 41.8935C24.916 40.888 25.0278 40.106 25.1395 39.4357H48.9351C48.9351 39.4357 50.6109 37.6483 51.0577 37.0897V23.2368L47.9297 24.2423L47.8179 24.4657ZM17.0959 37.0897C16.4256 37.0897 15.9787 36.978 15.5318 36.7545C15.1967 36.5311 14.8615 36.1959 14.5264 35.8608C14.303 35.5256 14.0795 35.0788 13.9678 34.7436C13.8561 34.2968 13.8561 33.9616 13.8561 33.6265C13.8561 32.2859 14.5264 31.057 15.6436 30.0515C16.7607 29.1578 18.6599 28.3758 21.2294 27.5938C21.3411 28.1523 21.3411 28.8226 21.4528 29.4929C21.4528 30.1632 21.4528 30.8335 21.4528 31.7273C21.4528 32.621 21.4528 33.0679 21.4528 33.8499V37.2014H16.8724L17.0959 37.0897Z" fill="white"/>
    <path d="M119.093 37.0895C118.982 35.1903 118.758 32.8443 118.758 32.3974C118.535 30.7217 118.2 28.7108 116.971 27.3702C115.742 25.9178 113.396 25.471 111.497 25.1358C106.246 24.5772 101.554 26.6999 97.4203 30.0514C96.4148 30.8334 95.4094 31.7271 94.4039 32.7326V14.2993C93.5102 14.6345 92.5047 14.9696 91.4993 15.193V36.8661H67.4802C67.4802 34.4083 67.3685 32.0623 67.1451 29.9396C66.9216 27.7053 66.6982 25.8061 66.363 23.9069C64.017 24.2421 62.1178 24.689 60.4421 25.3593C58.878 26.0296 57.5374 26.6999 56.4203 27.5936C55.4148 28.3756 54.6328 29.2693 54.1859 30.3865C53.7391 31.2802 53.5156 32.2857 53.5156 33.4029C53.5156 35.6372 54.0742 37.2012 55.1914 38.2067C56.3085 39.2121 57.9843 39.659 60.2186 39.659H64.4639C64.4639 40.3293 64.2404 40.9996 64.017 41.5582C63.7936 42.1168 63.4584 42.5636 63.1233 43.0105C62.7881 43.4574 62.453 43.7925 62.0061 44.0159C61.5592 44.3511 61.2241 44.5745 60.7772 44.6862C59.8835 45.1331 58.7663 45.3565 57.6491 45.4683L58.4312 48.1495C60.2186 48.0377 61.6709 47.5909 62.7881 46.9206C63.9053 46.2503 64.799 45.4683 65.4693 44.4628C66.1396 43.4574 66.5865 42.6753 66.9216 41.6699C67.2568 40.7762 67.3685 39.9941 67.3685 39.3238H116.747C116.747 39.3238 118.423 37.5364 118.87 36.9778C119.093 36.8661 118.982 36.7544 118.982 36.6426L119.093 37.0895ZM59.8835 37.0895C59.2132 37.0895 58.7663 36.9778 58.3194 36.7544C57.8726 36.5309 57.5374 36.1958 57.314 35.8606C57.0906 35.5255 56.8671 35.0786 56.7554 34.7435C56.7554 34.2966 56.7554 33.9614 56.7554 33.6263C56.7554 32.2857 57.4257 31.0568 58.5429 30.0514C59.66 29.1576 61.5592 28.3756 64.1287 27.5936C64.1287 28.1522 64.1287 28.8225 64.3521 29.4928C64.3521 30.1631 64.3521 30.8334 64.3521 31.7271C64.3521 32.6208 64.3521 33.0677 64.3521 33.8497V37.2012H59.7718L59.8835 37.0895ZM116.3 37.0895H94.5156C94.7391 37.0895 95.1859 36.4192 95.2976 36.1958C95.6328 35.7489 96.0797 35.4138 96.4148 34.9669C100.213 30.9451 104.794 27.5936 110.491 27.817C111.832 27.9287 113.172 28.2639 114.178 29.0459C115.071 29.7162 115.63 30.7217 115.854 31.9505C116.3 33.5146 116.189 35.5255 116.3 37.0895Z" fill="white"/>
    <path d="M194.949 24.466V37.09H183.889V36.5314C183.889 36.1962 183.889 35.6377 183.889 34.8556C183.889 34.0736 183.665 33.2916 183.442 32.3979C183.219 31.5041 182.995 30.6104 182.66 29.605C182.325 28.7112 181.99 27.8175 181.655 27.0355C181.208 26.2535 180.761 25.6949 180.314 25.248C179.755 24.8011 179.308 24.466 178.638 24.466C177.968 24.466 177.633 24.8011 176.962 25.4714C176.292 26.1417 175.51 27.0355 174.616 28.2644C173.834 29.3815 172.941 30.8338 172.047 32.2862C171.153 33.7385 170.371 35.5259 169.589 37.2017H160.764V23.684L157.859 24.466V37.09H142.107V23.9074C139.649 24.1308 137.415 24.5777 135.627 25.1363C133.84 25.6949 132.388 26.3652 131.159 27.2589C130.041 28.0409 129.148 28.9347 128.589 29.9401C128.031 30.8338 127.807 31.8393 127.807 32.9565C127.807 35.1908 128.366 36.8665 129.483 37.9837C130.6 39.2126 132.388 39.7712 134.734 39.7712C137.08 39.7712 136.633 39.6595 137.191 39.5477C137.75 39.3243 138.308 39.2126 138.532 38.9892C138.867 38.7657 139.091 38.4306 139.314 38.0954C139.426 38.3189 139.537 38.5423 139.649 38.654C139.649 38.8774 139.984 38.9892 140.096 39.2126C140.319 39.436 140.543 39.6595 140.766 39.7712H168.472C169.477 39.7712 170.371 39.6595 170.93 39.3243C171.488 38.9892 172.047 38.4306 172.494 37.4251C174.281 38.3189 175.845 39.1009 177.074 39.7712C178.303 40.3298 179.308 40.7766 180.09 41.0001C180.426 41.2235 180.761 41.2235 181.096 41.2235C181.431 41.2235 181.766 41.1118 181.99 41.0001C182.213 40.8883 182.548 40.4415 182.883 39.7712H195.619C195.619 39.7712 197.295 37.9837 197.742 37.4251V23.5723L194.949 24.5777V24.466ZM139.426 37.09H134.622C134.175 37.09 133.84 37.09 133.393 36.9783C132.946 36.8665 132.611 36.6431 132.276 36.4197C131.941 36.0845 131.717 35.7494 131.494 35.1908C131.27 34.6322 131.159 33.9619 131.159 32.9565C131.159 31.951 131.159 31.8393 131.605 31.2807C131.941 30.7221 132.388 30.2753 133.058 29.7167C133.728 29.2698 134.51 28.8229 135.627 28.3761C136.633 27.9292 137.973 27.5941 139.426 27.3706V37.2017V37.09ZM179.308 37.3134C178.638 37.09 177.968 36.7548 177.298 36.5314C176.627 36.1962 175.957 35.8611 175.287 35.5259C174.616 35.1908 174.058 34.7439 173.499 34.4088C173.611 34.1853 173.834 33.7385 174.281 33.0682C174.616 32.3979 175.063 31.7276 175.51 30.9456C175.957 30.2753 176.404 29.7167 176.962 29.1581C177.409 28.5995 177.856 28.3761 178.191 28.3761C178.526 28.3761 178.862 28.7112 179.197 29.2698C179.532 29.8284 179.755 30.6104 179.979 31.6159C180.202 32.5096 180.426 33.515 180.537 34.7439C180.649 35.8611 180.873 37.09 180.873 38.2071C180.537 37.9837 179.979 37.7603 179.308 37.5368V37.3134Z" fill="white"/>
    <path d="M203.216 39.6594C203.551 39.7712 203.998 39.7712 204.444 39.7712H214.276C215.84 39.7712 217.068 38.5423 217.068 36.9782C217.068 35.4142 216.733 33.7385 216.175 32.1744C215.616 30.6104 214.834 29.1581 213.94 27.8175C213.047 26.4769 212.041 25.3597 210.924 24.3543C209.807 23.4605 208.69 22.7902 207.573 22.4551L206.679 25.6949C208.131 26.3652 209.36 27.1472 210.254 28.1526C211.147 29.1581 211.929 30.0518 212.376 31.2807C212.935 32.2861 213.27 33.4033 213.382 34.4088C213.605 35.4142 213.605 36.1962 213.605 37.09H204.668C204.221 37.09 203.774 37.09 203.439 36.9782C203.104 36.9782 202.769 36.8665 202.434 36.7548C202.098 36.6431 201.763 36.5314 201.54 36.4197L201.316 39.2126C201.54 39.3243 201.875 39.436 202.098 39.5477C202.545 39.7712 202.88 39.7712 203.216 39.8829V39.6594Z" fill="white"/>
    <path d="M274.044 14.4116L271.586 15.0819C271.586 15.0819 271.251 14.9702 271.028 14.9702C270.804 14.8585 270.692 14.7468 270.469 14.6351C270.246 14.5234 270.134 14.2999 270.022 14.0765C270.022 13.8531 269.799 13.6296 269.799 13.4062C269.799 13.071 269.91 12.8476 270.134 12.6242C270.357 12.4007 270.581 12.289 270.916 12.1773C271.251 12.0656 271.474 12.0656 271.81 12.1773C272.145 12.1773 272.368 12.4007 272.703 12.5125L273.82 11.507C273.597 11.1719 273.262 10.9484 272.815 10.8367C272.48 10.725 272.033 10.6133 271.586 10.725C271.139 10.725 270.804 10.8367 270.357 11.0601C269.91 11.2836 269.575 11.507 269.24 11.7304C268.905 12.0656 268.682 12.4007 268.458 12.7359C268.235 13.1828 268.123 13.6296 268.123 14.0765C268.123 14.5234 268.123 14.7468 268.458 15.1937C268.682 15.6405 269.017 15.8639 269.352 15.9757L267.453 16.5342V17.8748L273.709 15.9757V14.4116H274.044Z" fill="white"/>
    <path d="M272.703 39.7712V18.0981L269.799 18.8802V39.7712H272.703Z" fill="white"/>
    <path d="M160.764 43.6813C160.317 44.1282 160.205 44.575 160.205 45.1336C160.205 45.6922 160.429 46.1391 160.764 46.5859C161.211 46.9211 161.657 47.1445 162.216 47.1445C162.775 47.1445 163.221 46.9211 163.668 46.5859C164.003 46.2508 164.227 45.6922 164.227 45.1336C164.227 44.575 164.003 44.0164 163.668 43.6813C163.333 43.2344 162.775 43.1227 162.216 43.1227C161.657 43.011 161.211 43.2344 160.764 43.6813Z" fill="white"/>
    <path d="M158.865 45.2458C158.865 44.6872 158.641 44.1286 158.306 43.7934C157.971 43.3466 157.412 43.2349 156.854 43.2349C156.295 43.2349 155.848 43.4583 155.401 43.7934C154.954 44.2403 154.843 44.6872 154.843 45.2458C154.843 45.8043 155.066 46.2512 155.401 46.6981C155.848 47.0332 156.295 47.2567 156.854 47.2567C157.412 47.2567 157.859 47.0332 158.306 46.6981C158.641 46.2512 158.865 45.8043 158.865 45.2458Z" fill="white"/>
    <path d="M20.5591 17.4277C20.1122 17.8746 20.0005 18.3215 20.0005 18.88C20.0005 19.4386 20.2239 19.8855 20.5591 20.3324C21.0059 20.6675 21.4528 20.8909 22.0114 20.8909C22.57 20.8909 23.0168 20.6675 23.4637 20.3324C23.7989 19.9972 24.0223 19.4386 24.0223 18.88C24.0223 18.3215 23.7989 17.7629 23.4637 17.4277C23.1286 16.9809 22.57 16.8691 22.0114 16.8691C21.4528 16.8691 20.8942 17.0926 20.5591 17.4277Z" fill="white"/>
    <path d="M18.5482 18.9919C18.5482 18.4333 18.3247 17.8747 17.9896 17.5395C17.6544 17.0927 17.0958 16.981 16.5373 16.981C15.9787 16.981 15.5318 17.2044 15.085 17.5395C14.6381 17.9864 14.5264 18.4333 14.5264 18.9919C14.5264 19.5504 14.7498 19.9973 15.085 20.4442C15.5318 20.7793 15.9787 21.0028 16.5373 21.0028C17.0958 21.0028 17.5427 20.7793 17.9896 20.4442C18.4364 19.9973 18.5482 19.5504 18.5482 18.9919Z" fill="white"/>
    <path d="M138.867 17.4277C138.42 17.8746 138.309 18.3215 138.309 18.88C138.309 19.4386 138.532 19.8855 138.867 20.3324C139.314 20.6675 139.761 20.8909 140.319 20.8909C140.878 20.8909 141.325 20.6675 141.772 20.3324C142.107 19.9972 142.33 19.4386 142.33 18.88C142.33 18.3215 142.107 17.7629 141.772 17.4277C141.437 16.9809 140.878 16.8691 140.319 16.8691C139.761 16.8691 139.202 17.0926 138.867 17.4277Z" fill="white"/>
    <path d="M136.856 18.9919C136.856 18.4333 136.633 17.8747 136.298 17.5395C135.963 17.0927 135.404 16.981 134.845 16.981C134.287 16.981 133.84 17.2044 133.393 17.5395C132.946 17.9864 132.834 18.4333 132.834 18.9919C132.834 19.5504 133.058 19.9973 133.393 20.4442C133.84 20.7793 134.287 21.0028 134.845 21.0028C135.404 21.0028 135.851 20.7793 136.298 20.4442C136.745 19.9973 136.856 19.5504 136.856 18.9919Z" fill="white"/>
    <path d="M194.39 43.6813C193.943 44.1282 193.832 44.575 193.832 45.1336C193.832 45.6922 194.055 46.1391 194.39 46.5859C194.837 46.9211 195.284 47.1445 195.842 47.1445C196.401 47.1445 196.848 46.9211 197.295 46.5859C197.63 46.2508 197.853 45.6922 197.853 45.1336C197.853 44.575 197.63 44.0164 197.295 43.6813C196.96 43.2344 196.401 43.1227 195.842 43.1227C195.284 43.011 194.725 43.2344 194.39 43.6813Z" fill="white"/>
    <path d="M192.379 45.2458C192.379 44.6872 192.156 44.1286 191.821 43.7934C191.485 43.3466 190.927 43.2349 190.368 43.2349C189.81 43.2349 189.363 43.4583 188.916 43.7934C188.469 44.2403 188.357 44.6872 188.357 45.2458C188.357 45.8043 188.581 46.2512 188.916 46.6981C189.363 47.0332 189.81 47.2567 190.368 47.2567C190.927 47.2567 191.374 47.0332 191.821 46.6981C192.267 46.2512 192.379 45.8043 192.379 45.2458Z" fill="white"/>
    <path d="M293.147 70.4932C294.935 45.3569 306.777 22.1199 325.769 6.25613C344.872 22.1199 356.714 45.3569 358.39 70.4932C348 74.7384 337.052 76.9727 325.769 76.9727C314.485 76.9727 303.425 74.7384 293.147 70.4932ZM325.769 0L324.316 1.22888C302.755 18.3215 289.572 44.1281 288.12 72.0572V73.8447L289.572 74.515C301.079 79.5422 313.256 82 325.769 82C338.281 82 350.458 79.4305 361.965 74.515L363.529 73.8447V72.0572C361.965 44.1281 348.782 18.3215 327.333 1.22888L325.88 0L325.769 0Z" fill="white"/>
    <path d="M325.769 13.9641C323.534 15.975 321.524 18.2094 319.513 20.4437L320.63 21.4492L321.97 22.7898L323.311 24.0186L324.652 25.3592L325.88 26.6998L327.109 28.0404L328.338 29.4928L329.567 30.9451L330.684 32.3974L331.801 33.8497L332.919 35.302L334.036 36.7543L335.153 38.3184L336.158 39.8824L337.164 41.4464L338.169 43.0105L339.175 44.6862L340.068 46.2502L340.962 47.926L341.856 49.49L342.638 51.1658L343.42 52.8415L344.202 54.5173L344.984 56.193L345.654 57.8688L346.325 59.5445L346.995 61.332L347.442 62.6726L343.308 60.4383V59.9914C343.197 59.9914 342.079 57.3102 342.079 57.3102L340.85 54.629L339.622 51.9478L338.281 49.3783L336.829 46.8088L335.376 44.2393L333.812 41.7816L332.137 39.3238L330.461 36.9778L328.673 34.6317L326.886 32.3974L324.987 30.1631L323.088 28.0404L321.077 25.9178L318.954 23.9069L317.725 22.7898C315.714 25.2475 313.927 27.817 312.251 30.3865L312.81 30.8334L315.156 32.8443L317.39 34.9669L319.624 37.0895L321.747 39.3238L323.87 41.5582L325.88 43.9042L327.891 46.2502L329.791 48.708L331.69 51.1658L333.477 53.6235L335.041 55.8579C334.483 55.6344 333.924 55.411 333.254 55.2993L331.578 53.2884L329.344 50.7189L326.998 48.1494L324.54 45.5799L322.082 43.1222L319.624 40.7761L317.055 38.4301L314.374 36.1958L311.692 33.9614L310.352 32.956C309.011 35.0786 307.894 37.4246 306.777 39.7707L309.011 41.3347L311.804 43.3456L314.374 45.3565L316.943 47.3674L319.401 49.49L321.859 51.7244L324.205 53.9587L324.428 54.1821C323.088 54.1821 321.747 54.4056 320.406 54.7407L320.183 54.5173L317.837 52.3947L315.379 50.272L312.921 48.2611L310.352 46.2502L307.782 44.3511L305.548 42.787C304.766 44.6862 304.096 46.4737 303.425 48.3729L304.543 48.9314L305.771 49.49L306.889 50.0486L308.006 50.7189L309.123 51.3892L310.24 52.0595L311.357 52.7298L312.474 53.4001L313.592 54.1821L314.709 54.9641L315.826 55.7462H316.049C315.267 56.193 314.485 56.6399 313.703 56.975L313.145 56.6399L311.134 55.5227L309.011 54.4056L306.889 53.4001L304.878 52.3947L302.755 51.3892L302.308 51.1658C301.75 53.1767 301.191 55.1876 300.744 57.1985L302.197 57.7571L304.431 58.6508L306.665 59.6562L308.229 60.3265L304.878 62.4492L303.761 61.8906L300.856 60.6617L300.074 60.3265C299.739 62.2257 299.404 64.1249 299.18 65.9124C302.867 67.253 306.553 68.2584 310.352 68.9287C314.485 69.8225 319.401 70.4928 324.652 70.4928C330.349 70.4928 335.6 69.9342 339.845 69.1522C339.957 69.1522 340.18 69.1522 340.292 69.1522C340.515 69.1522 340.739 69.1522 340.962 69.0404C342.079 68.817 343.085 68.5936 344.202 68.3701C346.771 67.8116 348.782 67.1413 350.235 66.6944C351.017 66.471 351.799 66.2475 352.581 65.9124C350.123 45.5799 340.739 26.9233 325.992 13.1821L325.769 13.9641ZM330.349 57.3102C331.69 56.4165 331.801 56.193 331.801 56.7516L330.796 58.5391C330.461 59.4328 329.009 58.2039 330.349 57.3102ZM319.624 59.768C320.183 58.8742 320.965 58.0922 321.747 57.4219C321.747 57.4219 322.194 56.8633 322.417 56.8633C322.417 56.8633 322.417 56.8633 322.417 56.975C322.082 57.5336 319.848 61.5554 319.848 62.3374C319.848 63.1195 321.635 62.5609 322.082 62.3374C322.306 62.114 322.306 61.6671 322.306 61.332C322.306 60.6617 321.97 59.9914 322.529 59.5445C322.976 59.2094 323.758 58.8742 324.205 59.2094C325.434 59.9914 323.646 61.7789 323.088 62.4492C322.417 63.2312 321.747 63.7898 320.853 64.3483C320.406 64.6835 319.066 65.5772 318.507 65.1304C318.507 65.1304 318.395 64.9069 318.395 64.7952C317.949 62.896 318.731 61.4437 319.736 59.8797L319.624 59.768ZM320.295 69.0404C319.736 69.7107 317.613 69.599 317.613 69.599C317.613 69.599 319.401 68.1467 320.406 67.3647C321.412 66.5827 323.199 64.3483 323.87 63.5663C324.54 62.7843 325.769 61.2203 326.216 60.7734C326.551 60.3265 327.668 59.0977 327.668 59.0977C327.668 59.0977 328.338 60.3265 326.662 62.3374C325.992 63.1195 324.316 64.6835 323.423 65.6889C322.529 66.6944 320.853 68.4819 320.295 69.1522V69.0404ZM334.818 58.9859C334.706 58.9859 334.483 58.9859 334.371 59.0977C334.147 59.0977 334.147 59.3211 334.259 59.5445C334.259 60.1031 334.259 60.6617 334.147 61.1086C334.147 61.332 334.036 61.6671 333.812 61.8906C333.477 62.3374 332.807 62.4492 332.472 62.896C332.025 63.3429 331.69 63.7898 331.243 64.2366C331.019 64.5718 330.796 65.4655 330.684 65.9124C330.461 67.253 327.221 68.4819 325.545 68.4819C323.199 68.4819 324.987 67.1413 325.322 66.8061C325.322 66.8061 325.322 66.8061 325.434 66.8061L328.562 66.471C329.902 66.3592 330.349 64.4601 329.791 64.0132C329.232 63.4546 328.673 63.3429 328.562 62.3374C328.562 61.8906 329.232 59.9914 330.908 60.8851C331.801 61.332 332.807 61.332 332.807 61.332V60.9968L332.695 59.3211C331.578 59.5445 331.913 58.7625 332.025 58.4274C332.137 58.0922 332.583 58.2039 333.477 57.7571C334.371 57.4219 334.706 57.1985 334.818 57.1985L335.041 58.8742C335.041 58.9859 335.041 59.0977 334.818 59.2094V58.9859Z" fill="white"/>
</svg>
