<svg width="36" height="38" viewBox="0 0 36 38" fill="none" xmlns="http://www.w3.org/2000/svg">
                            <g clip-path="url(#clip0_938_6861)">
                                <path
                                    d="M25.7127 20.8433C28.5475 18.3588 30.174 14.5149 29.6628 10.296C28.9657 4.95204 24.6454 0.686243 19.3477 0.0752807C12.236 -0.721627 6.19465 4.90517 6.19465 11.8883C6.19465 15.4509 7.77468 18.637 10.2377 20.8433C10.47 21.0308 10.3771 21.4058 10.1447 21.5465C4.70911 24.1716 0.759022 29.4671 0.0139269 35.7502C-0.125488 36.969 0.803944 38.0003 2.01221 38.0003C3.03458 38.0003 3.87107 37.2034 4.01048 36.219C4.89345 29.2359 10.7969 23.7966 18 23.7966C25.2031 23.7966 31.105 29.2359 31.9895 36.219C32.1289 37.2502 32.9654 38.0003 33.9878 38.0003C35.196 38.0003 36.1255 36.969 35.986 35.7502C35.1945 29.4671 31.2444 24.1716 25.8072 21.5465C25.5749 21.4058 25.4804 21.0308 25.7127 20.8433ZM10.2842 12.9227C9.63355 7.81154 13.9089 3.49886 18.9743 4.15514C22.4132 4.57703 25.2 7.38964 25.6647 10.9039C26.3153 16.0119 22.0399 20.3277 16.9745 19.6698C13.5356 19.2026 10.7489 16.39 10.2842 12.9211V12.9227Z"
                                    fill="white" />
                            </g>
                            <defs>
                                <clipPath id="clip0_938_6861">
                                    <rect width="36" height="38" fill="white" />
                                </clipPath>
                            </defs>
                        </svg>