<svg width="66" height="50" viewBox="0 0 66 50" fill="none" xmlns="http://www.w3.org/2000/svg">
    <g clip-path="url(#clip0_810_2963)">
        <path fill-rule="evenodd" clip-rule="evenodd" d="M6.43928 33.8692H2.41602C1.0818 33.8692 0 34.9556 0 36.2897V41.1282C0 43.4816 0.932407 45.737 2.59374 47.404C4.25507 49.0684 6.50624 50.0026 8.85272 50.0026H57.1473C59.4963 50.0026 61.7475 49.0684 63.4063 47.404C65.0676 45.737 66 43.4816 66 41.1282V36.2897C66 34.9556 64.9182 33.8692 63.584 33.8692H59.5607V5.64616C59.5607 4.14946 58.9657 2.71212 57.9097 1.65411C56.8537 0.596098 55.419 0 53.9251 0H12.0749C8.96347 0 6.43928 2.5289 6.43928 5.64616V33.8692ZM61.1731 38.7077V41.1282C61.1731 42.1991 60.7507 43.2236 59.996 43.9797C59.2413 44.7358 58.2188 45.1615 57.1499 45.1615H8.85272C7.7838 45.1615 6.76124 44.7358 6.00656 43.9797C5.25187 43.2236 4.82946 42.1991 4.82946 41.1282V38.7077H61.1705H61.1731ZM54.7338 33.8692V5.64616C54.7338 5.20231 54.3758 4.83846 53.9276 4.83846H12.0724C11.6268 4.83846 11.2662 5.20231 11.2662 5.64616V33.8692H54.7313H54.7338ZM33 7.2564C33.9788 7.2564 34.8571 7.84734 35.2306 8.75052C35.604 9.6537 35.3954 10.6962 34.7077 11.3878C34.0174 12.0794 32.9794 12.2858 32.0753 11.9116C31.1738 11.5401 30.584 10.6575 30.584 9.67692C30.584 8.3428 31.6658 7.2564 33 7.2564Z" fill="#4E3797"/>
    </g>
    <defs>
        <clipPath id="clip0_810_2963">
            <rect width="66" height="50" fill="white"/>
        </clipPath>
    </defs>
</svg>
