<svg width="40" height="40" viewBox="0 0 40 40" fill="none" xmlns="http://www.w3.org/2000/svg">
                            <g clip-path="url(#clip0_938_6800)">
                                <path fill-rule="evenodd" clip-rule="evenodd"
                                    d="M37.1429 30.0008V1.42933C37.1429 0.64 36.5029 0 35.7135 0H4.28495C3.49562 0 2.85562 0.64 2.85562 1.42933V30.0008C2.85562 30.7901 3.49562 31.4301 4.28495 31.4301C5.07429 31.4301 5.71429 30.7901 5.71429 30.0008V2.85714H34.2857V29.9992C34.2857 30.7886 34.9257 31.4286 35.715 31.4286C36.5044 31.4286 37.1444 30.7886 37.1444 29.9992L37.1429 30.0008Z"
                                    fill="white" />
                                <path fill-rule="evenodd" clip-rule="evenodd"
                                    d="M25.7143 28.5714C24.925 28.5714 24.285 29.2114 24.285 30.0007V31.4301H15.7135V30.0007C15.7135 29.2114 15.0735 28.5714 14.2842 28.5714H1.42933C0.64 28.5714 0 29.2114 0 30.0007V38.5722C0 39.3615 0.64 40.0015 1.42933 40.0015H38.5722C39.3615 40.0015 40.0015 39.3615 40.0015 38.5722V30.0007C40.0015 29.2114 39.3615 28.5714 38.5722 28.5714H25.7143ZM27.1436 31.4286H37.1429V37.1428H2.85714V31.4286H12.8564V32.8579C12.8564 33.6472 13.4964 34.2872 14.2857 34.2872H25.7143C26.5036 34.2872 27.1436 33.6472 27.1436 32.8579V31.4286Z"
                                    fill="white" />
                                <path fill-rule="evenodd" clip-rule="evenodd"
                                    d="M8.57144 22.8571C8.57144 23.6465 9.21144 24.2865 10.0008 24.2865H21.4293C22.2187 24.2865 22.8587 23.6465 22.8587 22.8571C22.8587 18.9135 19.6587 15.7135 15.7151 15.7135C11.7714 15.7135 8.57144 18.9135 8.57144 22.8571ZM11.6724 21.4278C12.2606 19.7638 13.8499 18.5706 15.7135 18.5706C17.5772 18.5706 19.1665 19.7638 19.7547 21.4278H11.6724Z"
                                    fill="white" />
                                <path fill-rule="evenodd" clip-rule="evenodd"
                                    d="M15.7135 5.71423C13.347 5.71423 11.4286 7.63423 11.4286 9.99919C11.4286 12.3641 13.3486 14.2841 15.7135 14.2841C18.0785 14.2841 19.9985 12.3641 19.9985 9.99919C19.9985 7.63423 18.0785 5.71423 15.7135 5.71423ZM15.7135 8.57138C16.5028 8.57138 17.1428 9.21138 17.1428 10.0007C17.1428 10.79 16.5028 11.43 15.7135 11.43C14.9242 11.43 14.2842 10.79 14.2842 10.0007C14.2842 9.21138 14.9242 8.57138 15.7135 8.57138Z"
                                    fill="white" />
                                <path fill-rule="evenodd" clip-rule="evenodd"
                                    d="M30.0008 12.8579H24.2865C23.4971 12.8579 22.8571 13.4979 22.8571 14.2872C22.8571 15.0766 23.4971 15.7166 24.2865 15.7166H30.0008C30.7901 15.7166 31.4301 15.0766 31.4301 14.2872C31.4301 13.4979 30.7901 12.8579 30.0008 12.8579Z"
                                    fill="white" />
                                <path fill-rule="evenodd" clip-rule="evenodd"
                                    d="M25.7143 11.4286V17.1429C25.7143 17.9322 26.3543 18.5722 27.1436 18.5722C27.933 18.5722 28.573 17.9322 28.573 17.1429V11.4286C28.573 10.6393 27.933 9.99927 27.1436 9.99927C26.3543 9.99927 25.7143 10.6393 25.7143 11.4286Z"
                                    fill="white" />
                            </g>
                            <defs>
                                <clipPath id="clip0_938_6800">
                                    <rect width="40" height="40" fill="white" />
                                </clipPath>
                            </defs>
                        </svg>