                        <svg width="24" height="44" viewBox="0 0 24 44" fill="none" xmlns="http://www.w3.org/2000/svg">
                            <g clip-path="url(#clip0_938_6809)">
                                <path fill-rule="evenodd" clip-rule="evenodd"
                                    d="M12.0002 16.1259C11.0587 16.1259 10.2089 15.5545 9.85003 14.6755C9.48967 13.7965 9.68787 12.7856 10.3545 12.1142C11.0212 11.4413 12.0227 11.2397 12.8921 11.6049C13.7629 11.9687 14.329 12.8265 14.329 13.7768C14.3275 15.0756 13.2855 16.1259 11.9987 16.1259H12.0002ZM12.0002 9.36342C10.2314 9.36342 8.63532 10.438 7.95814 12.0884C7.28247 13.7373 7.65484 15.6348 8.90709 16.8973C10.1563 18.1598 12.0377 18.5387 13.6714 17.8551C15.305 17.1731 16.3711 15.5621 16.3711 13.7768C16.3696 11.3412 14.4131 9.36645 12.0002 9.36493V9.36342ZM4.05724 26.2287L5.42661 32.3728L2.90859 35.0826L2.09328 28.3383L4.05724 26.2287ZM12.0002 2.25085C13.8545 3.46331 15.4536 5.03192 16.7074 6.86879C13.6023 6.23528 10.3996 6.23528 7.29448 6.86879C8.54973 5.03344 10.1488 3.46482 12.0017 2.25085H12.0002ZM19.4341 19.1267C19.9656 15.8016 19.5017 12.393 18.1023 9.33614C14.1188 8.16005 9.88457 8.16005 5.89958 9.33614C4.50319 12.3946 4.03772 15.8016 4.56625 19.1252L5.6218 23.8598C5.62481 23.8704 5.62481 23.8811 5.62931 23.8917L7.39207 31.806H7.39358C10.4356 32.4076 13.5647 32.4076 16.6068 31.8075L18.3696 23.8917C18.3726 23.8811 18.3726 23.872 18.3771 23.8629L19.4326 19.1267H19.4341ZM19.9431 26.2287L21.9026 28.3383L21.0933 35.0826L18.5753 32.3728L19.9431 26.2287ZM13.9521 37.1908C13.784 38.82 13.0993 40.3507 12.0002 41.5586C10.9041 40.3523 10.2194 38.823 10.0467 37.1953C9.99718 36.7073 10.1218 35.8146 10.9641 34.2991C11.6563 34.3264 12.3455 34.3279 13.0362 34.2991C13.8756 35.8146 14.0062 36.7058 13.9506 37.1908H13.9521ZM0.0076903 28.108L1.14433 37.5197C1.19237 37.9198 1.46265 38.2532 1.83952 38.3775C2.2164 38.5017 2.63081 38.3957 2.90259 38.1016L6.89208 33.8095C7.51069 33.9353 8.13232 34.0369 8.75844 34.1172H8.75994C8.2194 35.1266 7.96265 36.2648 8.0152 37.4105C8.27346 39.8839 9.46715 42.1618 11.35 43.7668C11.7284 44.0806 12.2735 44.0806 12.6518 43.7668C14.5362 42.1618 15.7314 39.8824 15.9852 37.4075C16.0392 36.2632 15.7825 35.1251 15.2419 34.1172C15.8681 34.0384 16.4912 33.9353 17.1113 33.8095L21.1008 38.1016C21.3711 38.3972 21.787 38.5033 22.1638 38.379C22.5407 38.2532 22.811 37.9183 22.859 37.5227L23.9957 28.111C24.0302 27.8049 23.9341 27.5017 23.7269 27.2774L20.4897 23.7962L21.4386 19.5465C21.4416 19.5253 21.4476 19.5041 21.4506 19.4829C22.0452 15.7288 21.5137 11.8808 19.9251 8.43589C18.3305 4.98797 15.7554 2.10233 12.5257 0.147242C12.2014 -0.0482667 11.7975 -0.0482667 11.4732 0.147242C8.24493 2.10233 5.66835 4.991 4.07976 8.43589C2.48967 11.8808 1.95964 15.7288 2.55424 19.4829C2.55724 19.5041 2.56174 19.5253 2.56625 19.5465L3.5152 23.8007L0.277961 27.2805C0.0722549 27.5017 -0.0283457 27.8049 0.0076903 28.1065V28.108Z"
                                    fill="white" />
                            </g>
                            <defs>
                                <clipPath id="clip0_938_6809">
                                    <rect width="24" height="44" fill="white" />
                                </clipPath>
                            </defs>
                        </svg>