<svg width="45" height="53" viewBox="0 0 45 53" fill="none" xmlns="http://www.w3.org/2000/svg">
<path d="M43.125 41.6429H1.875C0.84 41.6429 0 40.7949 0 39.75V32.1786C0 31.1337 0.84 30.2857 1.875 30.2857H43.125C44.16 30.2857 45 31.1337 45 32.1786V39.75C45 40.7949 44.16 41.6429 43.125 41.6429ZM3.75 37.8571H41.25V34.0714H3.75V37.8571Z" fill="#4E3797"/>
<path d="M22.5 15.1429C18.3635 15.1429 15 11.7473 15 7.57143C15 3.39553 18.3635 0 22.5 0C26.6365 0 30 3.39553 30 7.57143C30 11.7473 26.6365 15.1429 22.5 15.1429ZM22.5 3.78571C20.434 3.78571 18.75 5.48575 18.75 7.57143C18.75 9.6571 20.434 11.3571 22.5 11.3571C24.566 11.3571 26.25 9.6571 26.25 7.57143C26.25 5.48575 24.57 3.78571 22.5 3.78571Z" fill="#4E3797"/>
<path d="M35.625 34.0714C34.59 34.0714 33.75 33.2234 33.75 32.1786V27.2799C31.7365 25.3189 29.216 23.907 26.516 23.2291L23.8275 25.9473C23.0965 26.6852 21.9075 26.6852 21.1765 25.9473L18.484 23.2291C15.7575 23.907 13.2825 25.2926 11.25 27.2763V32.1786C11.25 33.2234 10.41 34.0714 9.375 34.0714C8.34 34.0714 7.5 33.2234 7.5 32.1786V26.5C7.5 26.0154 7.684 25.55 8.0135 25.1977C10.9125 22.105 14.625 20.0643 18.75 19.2996C19.3465 19.186 19.98 19.3788 20.415 19.822L22.5 21.9304L24.5885 19.822C25.0235 19.3829 25.6425 19.1895 26.2535 19.2996C30.3185 20.0532 34.132 22.1505 36.986 25.1977C37.316 25.5495 37.5 26.0154 37.5 26.5V32.1786C37.5 33.2234 36.66 34.0714 35.625 34.0714Z" fill="#4E3797"/>
<path d="M30 53H15C14.081 53 13.301 52.3302 13.151 51.4176L11.276 40.0604C11.107 39.0307 11.7975 38.054 12.817 37.8839C13.8445 37.6981 14.8045 38.4104 14.973 39.4396L16.5855 49.2143H28.4095L30.0255 39.4396C30.198 38.4058 31.1765 37.7098 32.1815 37.8839C33.2015 38.0545 33.895 39.0312 33.7225 40.0604L31.8475 51.4176C31.6975 52.3297 30.9135 53 29.9985 53H30Z" fill="#4E3797"/>
</svg>
