<svg width="76" height="54" viewBox="0 0 76 54" fill="none" xmlns="http://www.w3.org/2000/svg">
<mask id="path-1-outside-1_810_2983" maskUnits="userSpaceOnUse" x="0" y="0" width="76" height="54" fill="black">
<rect fill="white" width="76" height="54"/>
<path d="M73.6786 40V2.3C73.6786 1.5824 73.0866 1 72.3571 1H3.64286C2.91343 1 2.32143 1.5824 2.32143 2.3V40C1.592 40 1 40.5824 1 41.3V46.5C1 50.0845 3.96423 53 7.60714 53H68.3929C72.0358 53 75 50.0845 75 46.5V41.3C75 40.5824 74.408 40 73.6786 40ZM64.3095 40C63.9 37.6184 62.3988 35.6008 60.324 34.4721C61.224 33.5388 61.7857 32.286 61.7857 30.9C61.7857 28.0324 59.4149 25.7 56.5 25.7C53.5851 25.7 51.2143 28.0324 51.2143 30.9C51.2143 32.2846 51.776 33.5374 52.676 34.4714C50.6011 35.5994 49.0986 37.6191 48.6905 39.9993H39.3214V23.1007H71.0357V40.0007L64.3095 40ZM16.8571 30.9C16.8571 29.4662 18.0426 28.3 19.5 28.3C20.9574 28.3 22.1429 29.4662 22.1429 30.9C22.1429 32.3338 20.9574 33.5 19.5 33.5C18.0426 33.5 16.8571 32.3352 16.8571 30.9ZM19.5 36.1C21.9554 36.1 24.0077 37.7626 24.5982 40H14.4018C14.9923 37.764 17.0446 36.1 19.5 36.1ZM22.1429 42.6H53.8571V43.9C53.8571 44.7632 52.9677 45.2 51.2143 45.2H24.7857C23.0323 45.2 22.1429 44.7632 22.1429 43.9V42.6ZM51.4032 40C51.9952 37.764 54.046 36.1 56.5014 36.1C58.9568 36.1 61.0077 37.7626 61.5997 40H51.4032ZM53.8571 30.9C53.8571 29.4662 55.0425 28.3 56.5 28.3C57.9574 28.3 59.1428 29.4662 59.1428 30.9C59.1428 32.3338 57.9574 33.5 56.5 33.5C55.0425 33.5 53.8571 32.3352 53.8571 30.9ZM53.8571 11.4C53.8571 9.96619 55.0425 8.8 56.5 8.8C57.9574 8.8 59.1428 9.96619 59.1428 11.4C59.1428 12.8338 57.9574 14 56.5 14C55.0425 14 53.8571 12.8352 53.8571 11.4ZM56.5 16.6C58.9554 16.6 61.0062 18.2626 61.5982 20.5H51.4017C51.9937 18.264 54.046 16.6 56.5 16.6ZM71.0357 20.5H64.3095C63.9 18.1184 62.3988 16.1008 60.324 14.9721C61.224 14.0388 61.7857 12.7853 61.7857 11.4C61.7857 8.53237 59.4149 6.2 56.5 6.2C53.5851 6.2 51.2143 8.53237 51.2143 11.4C51.2143 12.7846 51.776 14.0374 52.676 14.9714C50.6011 16.0994 49.0986 18.1184 48.6905 20.4993H39.3214V3.6H71.0357V20.5ZM36.6786 3.6V20.5H27.3095C26.9 18.1184 25.3989 16.1008 23.3226 14.9721C24.224 14.0388 24.7857 12.7853 24.7857 11.4C24.7857 8.53237 22.4149 6.2 19.5 6.2C16.5851 6.2 14.2143 8.53237 14.2143 11.4C14.2143 12.7846 14.776 14.0374 15.6774 14.9714C13.6011 16.1008 12.1 18.1184 11.6905 20.5H4.96429V3.6H36.6786ZM16.8571 11.4C16.8571 9.96619 18.0426 8.8 19.5 8.8C20.9574 8.8 22.1429 9.96619 22.1429 11.4C22.1429 12.8338 20.9574 14 19.5 14C18.0426 14 16.8571 12.8352 16.8571 11.4ZM19.5 16.6C21.9554 16.6 24.0077 18.2626 24.5982 20.5H14.4018C14.9923 18.264 17.0446 16.6 19.5 16.6ZM4.96429 23.1H36.6793V40H27.3102C26.9007 37.6184 25.3996 35.6008 23.3233 34.4721C24.2247 33.5388 24.7864 32.286 24.7864 30.9C24.7864 28.0324 22.4156 25.7 19.5007 25.7C16.5858 25.7 14.215 28.0324 14.215 30.9C14.215 32.2846 14.7767 33.5374 15.6781 34.4714C13.6018 35.6008 12.1007 37.6184 11.6912 40H4.96429V23.1ZM72.3571 46.5C72.3571 48.65 70.5783 50.4 68.3929 50.4H7.60714C5.42168 50.4 3.64286 48.65 3.64286 46.5V42.6H19.5V43.9C19.5 44.8152 19.882 47.8 24.7857 47.8H51.2143C56.118 47.8 56.5 44.8152 56.5 43.9V42.6H72.3571V46.5Z"/>
</mask>
<path d="M73.6786 40V2.3C73.6786 1.5824 73.0866 1 72.3571 1H3.64286C2.91343 1 2.32143 1.5824 2.32143 2.3V40C1.592 40 1 40.5824 1 41.3V46.5C1 50.0845 3.96423 53 7.60714 53H68.3929C72.0358 53 75 50.0845 75 46.5V41.3C75 40.5824 74.408 40 73.6786 40ZM64.3095 40C63.9 37.6184 62.3988 35.6008 60.324 34.4721C61.224 33.5388 61.7857 32.286 61.7857 30.9C61.7857 28.0324 59.4149 25.7 56.5 25.7C53.5851 25.7 51.2143 28.0324 51.2143 30.9C51.2143 32.2846 51.776 33.5374 52.676 34.4714C50.6011 35.5994 49.0986 37.6191 48.6905 39.9993H39.3214V23.1007H71.0357V40.0007L64.3095 40ZM16.8571 30.9C16.8571 29.4662 18.0426 28.3 19.5 28.3C20.9574 28.3 22.1429 29.4662 22.1429 30.9C22.1429 32.3338 20.9574 33.5 19.5 33.5C18.0426 33.5 16.8571 32.3352 16.8571 30.9ZM19.5 36.1C21.9554 36.1 24.0077 37.7626 24.5982 40H14.4018C14.9923 37.764 17.0446 36.1 19.5 36.1ZM22.1429 42.6H53.8571V43.9C53.8571 44.7632 52.9677 45.2 51.2143 45.2H24.7857C23.0323 45.2 22.1429 44.7632 22.1429 43.9V42.6ZM51.4032 40C51.9952 37.764 54.046 36.1 56.5014 36.1C58.9568 36.1 61.0077 37.7626 61.5997 40H51.4032ZM53.8571 30.9C53.8571 29.4662 55.0425 28.3 56.5 28.3C57.9574 28.3 59.1428 29.4662 59.1428 30.9C59.1428 32.3338 57.9574 33.5 56.5 33.5C55.0425 33.5 53.8571 32.3352 53.8571 30.9ZM53.8571 11.4C53.8571 9.96619 55.0425 8.8 56.5 8.8C57.9574 8.8 59.1428 9.96619 59.1428 11.4C59.1428 12.8338 57.9574 14 56.5 14C55.0425 14 53.8571 12.8352 53.8571 11.4ZM56.5 16.6C58.9554 16.6 61.0062 18.2626 61.5982 20.5H51.4017C51.9937 18.264 54.046 16.6 56.5 16.6ZM71.0357 20.5H64.3095C63.9 18.1184 62.3988 16.1008 60.324 14.9721C61.224 14.0388 61.7857 12.7853 61.7857 11.4C61.7857 8.53237 59.4149 6.2 56.5 6.2C53.5851 6.2 51.2143 8.53237 51.2143 11.4C51.2143 12.7846 51.776 14.0374 52.676 14.9714C50.6011 16.0994 49.0986 18.1184 48.6905 20.4993H39.3214V3.6H71.0357V20.5ZM36.6786 3.6V20.5H27.3095C26.9 18.1184 25.3989 16.1008 23.3226 14.9721C24.224 14.0388 24.7857 12.7853 24.7857 11.4C24.7857 8.53237 22.4149 6.2 19.5 6.2C16.5851 6.2 14.2143 8.53237 14.2143 11.4C14.2143 12.7846 14.776 14.0374 15.6774 14.9714C13.6011 16.1008 12.1 18.1184 11.6905 20.5H4.96429V3.6H36.6786ZM16.8571 11.4C16.8571 9.96619 18.0426 8.8 19.5 8.8C20.9574 8.8 22.1429 9.96619 22.1429 11.4C22.1429 12.8338 20.9574 14 19.5 14C18.0426 14 16.8571 12.8352 16.8571 11.4ZM19.5 16.6C21.9554 16.6 24.0077 18.2626 24.5982 20.5H14.4018C14.9923 18.264 17.0446 16.6 19.5 16.6ZM4.96429 23.1H36.6793V40H27.3102C26.9007 37.6184 25.3996 35.6008 23.3233 34.4721C24.2247 33.5388 24.7864 32.286 24.7864 30.9C24.7864 28.0324 22.4156 25.7 19.5007 25.7C16.5858 25.7 14.215 28.0324 14.215 30.9C14.215 32.2846 14.7767 33.5374 15.6781 34.4714C13.6018 35.6008 12.1007 37.6184 11.6912 40H4.96429V23.1ZM72.3571 46.5C72.3571 48.65 70.5783 50.4 68.3929 50.4H7.60714C5.42168 50.4 3.64286 48.65 3.64286 46.5V42.6H19.5V43.9C19.5 44.8152 19.882 47.8 24.7857 47.8H51.2143C56.118 47.8 56.5 44.8152 56.5 43.9V42.6H72.3571V46.5Z" fill="#4E3797"/>
<path d="M73.6786 40V2.3C73.6786 1.5824 73.0866 1 72.3571 1H3.64286C2.91343 1 2.32143 1.5824 2.32143 2.3V40C1.592 40 1 40.5824 1 41.3V46.5C1 50.0845 3.96423 53 7.60714 53H68.3929C72.0358 53 75 50.0845 75 46.5V41.3C75 40.5824 74.408 40 73.6786 40ZM64.3095 40C63.9 37.6184 62.3988 35.6008 60.324 34.4721C61.224 33.5388 61.7857 32.286 61.7857 30.9C61.7857 28.0324 59.4149 25.7 56.5 25.7C53.5851 25.7 51.2143 28.0324 51.2143 30.9C51.2143 32.2846 51.776 33.5374 52.676 34.4714C50.6011 35.5994 49.0986 37.6191 48.6905 39.9993H39.3214V23.1007H71.0357V40.0007L64.3095 40ZM16.8571 30.9C16.8571 29.4662 18.0426 28.3 19.5 28.3C20.9574 28.3 22.1429 29.4662 22.1429 30.9C22.1429 32.3338 20.9574 33.5 19.5 33.5C18.0426 33.5 16.8571 32.3352 16.8571 30.9ZM19.5 36.1C21.9554 36.1 24.0077 37.7626 24.5982 40H14.4018C14.9923 37.764 17.0446 36.1 19.5 36.1ZM22.1429 42.6H53.8571V43.9C53.8571 44.7632 52.9677 45.2 51.2143 45.2H24.7857C23.0323 45.2 22.1429 44.7632 22.1429 43.9V42.6ZM51.4032 40C51.9952 37.764 54.046 36.1 56.5014 36.1C58.9568 36.1 61.0077 37.7626 61.5997 40H51.4032ZM53.8571 30.9C53.8571 29.4662 55.0425 28.3 56.5 28.3C57.9574 28.3 59.1428 29.4662 59.1428 30.9C59.1428 32.3338 57.9574 33.5 56.5 33.5C55.0425 33.5 53.8571 32.3352 53.8571 30.9ZM53.8571 11.4C53.8571 9.96619 55.0425 8.8 56.5 8.8C57.9574 8.8 59.1428 9.96619 59.1428 11.4C59.1428 12.8338 57.9574 14 56.5 14C55.0425 14 53.8571 12.8352 53.8571 11.4ZM56.5 16.6C58.9554 16.6 61.0062 18.2626 61.5982 20.5H51.4017C51.9937 18.264 54.046 16.6 56.5 16.6ZM71.0357 20.5H64.3095C63.9 18.1184 62.3988 16.1008 60.324 14.9721C61.224 14.0388 61.7857 12.7853 61.7857 11.4C61.7857 8.53237 59.4149 6.2 56.5 6.2C53.5851 6.2 51.2143 8.53237 51.2143 11.4C51.2143 12.7846 51.776 14.0374 52.676 14.9714C50.6011 16.0994 49.0986 18.1184 48.6905 20.4993H39.3214V3.6H71.0357V20.5ZM36.6786 3.6V20.5H27.3095C26.9 18.1184 25.3989 16.1008 23.3226 14.9721C24.224 14.0388 24.7857 12.7853 24.7857 11.4C24.7857 8.53237 22.4149 6.2 19.5 6.2C16.5851 6.2 14.2143 8.53237 14.2143 11.4C14.2143 12.7846 14.776 14.0374 15.6774 14.9714C13.6011 16.1008 12.1 18.1184 11.6905 20.5H4.96429V3.6H36.6786ZM16.8571 11.4C16.8571 9.96619 18.0426 8.8 19.5 8.8C20.9574 8.8 22.1429 9.96619 22.1429 11.4C22.1429 12.8338 20.9574 14 19.5 14C18.0426 14 16.8571 12.8352 16.8571 11.4ZM19.5 16.6C21.9554 16.6 24.0077 18.2626 24.5982 20.5H14.4018C14.9923 18.264 17.0446 16.6 19.5 16.6ZM4.96429 23.1H36.6793V40H27.3102C26.9007 37.6184 25.3996 35.6008 23.3233 34.4721C24.2247 33.5388 24.7864 32.286 24.7864 30.9C24.7864 28.0324 22.4156 25.7 19.5007 25.7C16.5858 25.7 14.215 28.0324 14.215 30.9C14.215 32.2846 14.7767 33.5374 15.6781 34.4714C13.6018 35.6008 12.1007 37.6184 11.6912 40H4.96429V23.1ZM72.3571 46.5C72.3571 48.65 70.5783 50.4 68.3929 50.4H7.60714C5.42168 50.4 3.64286 48.65 3.64286 46.5V42.6H19.5V43.9C19.5 44.8152 19.882 47.8 24.7857 47.8H51.2143C56.118 47.8 56.5 44.8152 56.5 43.9V42.6H72.3571V46.5Z" stroke="#4E3797" stroke-width="0.4" mask="url(#path-1-outside-1_810_2983)"/>
</svg>
